@startuml
!include style.puml
skinparam arrowThickness 1.1
skinparam arrowColor MODEL_COLOR
skinparam classBackgroundColor MODEL_COLOR

Package Model as ModelPackage <<Rectangle>>{
Class "<<interface>>\nReadOnlyAddressBook" as ReadOnlyAddressBook
Class "<<interface>>\nReadOnlyUserPrefs" as ReadOnlyUserPrefs
Class "<<interface>>\nModel" as Model
Class AddressBook
Class ModelManager
Class UserPrefs

Class UniqueStudentList
Class Student
Class StudentId
Class Name
abstract Class TutorialClass
Class None_TutorialClass
Class Exist_TutorialClass
Class Assignment
Class AssignmentList
abstract Class Tutorial
Class None_Tutorial
Class Exist_Tutorial
Class TutorialList

Class TutDate
Class TutName

Class I #FFFFFF
}

Class HiddenOutside #FFFFFF
HiddenOutside ..> Model

AddressBook .up.|> ReadOnlyAddressBook

ModelManager .up.|> Model
Model .right.> ReadOnlyUserPrefs
Model .left.> ReadOnlyAddressBook
ModelManager -left-> "1" AddressBook
ModelManager -right-> "1" UserPrefs
UserPrefs .up.|> ReadOnlyUserPrefs

AddressBook *--> "1" UniqueStudentList
UniqueStudentList --> "~* all" Student
Student *--> Name
Student *--> StudentId
Student *--> TutorialClass

Student -[hidden]up--> I
UniqueStudentList -[hidden]right-> I

Name -[hidden]right-> StudentId
StudentId -[hidden]right-> TutorialClass

ModelManager --> "~* filtered" Student
ModelManager -right-> "1" AssignmentList
ModelManager -down-> "1" TutorialList
AssignmentList --> "~* all" Assignment
TutorialList --> "~* all" Tutorial
Tutorial *--> "~* all" TutDate
Tutorial *--> TutName
Tutorial <|-- Exist_Tutorial
Tutorial <|-- None_Tutorial
TutorialClass <|-- Exist_TutorialClass
TutorialClass <|-- None_TutorialClass
@enduml
